<?xml version="1.0" encoding="utf-8"?>
<!-- Generator: Adobe Illustrator 23.0.0, SVG Export Plug-In . SVG Version: 6.00 Build 0)  -->
<svg version="1.1" id="Ñëîé_1" xmlns="http://www.w3.org/2000/svg" xmlns:xlink="http://www.w3.org/1999/xlink" x="0px" y="0px"
	 viewBox="0 0 439.74 352.98" style="enable-background:new 0 0 439.74 352.98;" xml:space="preserve">
<style type="text/css">
	.st0{fill:#396CAA;}
	.st1{fill:#5793CE;}
	.st2{fill:#D4ECFF;}
	.st3{fill:#FFFFFF;}
	.st4{fill:#173D7A;}
	.st5{clip-path:url(#SVGID_2_);fill:#FFFFFF;}
	.st6{clip-path:url(#SVGID_2_);fill:#FEFFFF;}
	.st7{clip-path:url(#SVGID_2_);fill:#FEFEFF;}
	.st8{clip-path:url(#SVGID_2_);fill:#FDFEFE;}
	.st9{clip-path:url(#SVGID_2_);fill:#FDFDFE;}
	.st10{clip-path:url(#SVGID_2_);fill:#FCFDFE;}
	.st11{clip-path:url(#SVGID_2_);fill:#FBFDFE;}
	.st12{clip-path:url(#SVGID_2_);fill:#FBFCFE;}
	.st13{clip-path:url(#SVGID_2_);fill:#FAFCFE;}
	.st14{clip-path:url(#SVGID_2_);fill:#FAFCFD;}
	.st15{clip-path:url(#SVGID_2_);fill:#F9FBFD;}
	.st16{clip-path:url(#SVGID_2_);fill:#F8FBFD;}
	.st17{clip-path:url(#SVGID_2_);fill:#F8FAFD;}
	.st18{clip-path:url(#SVGID_2_);fill:#F7FAFD;}
	.st19{clip-path:url(#SVGID_2_);fill:#F7FAFC;}
	.st20{clip-path:url(#SVGID_2_);fill:#F6F9FC;}
	.st21{clip-path:url(#SVGID_2_);fill:#F5F9FC;}
	.st22{clip-path:url(#SVGID_2_);fill:#F5F8FC;}
	.st23{clip-path:url(#SVGID_2_);fill:#F4F8FC;}
	.st24{clip-path:url(#SVGID_2_);fill:#F3F7FB;}
	.st25{clip-path:url(#SVGID_2_);fill:#F2F7FB;}
	.st26{clip-path:url(#SVGID_2_);fill:#F2F6FB;}
	.st27{clip-path:url(#SVGID_2_);fill:#F1F6FB;}
	.st28{clip-path:url(#SVGID_2_);fill:#F0F5FB;}
	.st29{clip-path:url(#SVGID_2_);fill:#F0F5FA;}
	.st30{clip-path:url(#SVGID_2_);fill:#EFF5FA;}
	.st31{clip-path:url(#SVGID_2_);fill:#EEF4FA;}
	.st32{clip-path:url(#SVGID_2_);fill:#EDF3F9;}
	.st33{clip-path:url(#SVGID_2_);fill:#ECF3F9;}
	.st34{clip-path:url(#SVGID_2_);fill:#ECF2F9;}
	.st35{clip-path:url(#SVGID_2_);fill:#EBF2F9;}
	.st36{clip-path:url(#SVGID_2_);fill:#EAF1F9;}
	.st37{clip-path:url(#SVGID_2_);fill:#E9F1F8;}
	.st38{clip-path:url(#SVGID_2_);fill:#E9F0F8;}
	.st39{clip-path:url(#SVGID_2_);fill:#E8F0F8;}
	.st40{clip-path:url(#SVGID_2_);fill:#E7EFF8;}
	.st41{clip-path:url(#SVGID_2_);fill:#E6EFF7;}
	.st42{clip-path:url(#SVGID_2_);fill:#E5EEF7;}
	.st43{clip-path:url(#SVGID_2_);fill:#E4EDF7;}
	.st44{clip-path:url(#SVGID_2_);fill:#E3EDF6;}
	.st45{clip-path:url(#SVGID_2_);fill:#E2ECF6;}
	.st46{clip-path:url(#SVGID_2_);fill:#E1EBF6;}
	.st47{clip-path:url(#SVGID_2_);fill:#E0EBF6;}
	.st48{clip-path:url(#SVGID_2_);fill:#DFEAF5;}
	.st49{clip-path:url(#SVGID_2_);fill:#DEEAF5;}
	.st50{clip-path:url(#SVGID_2_);fill:#DDE9F5;}
	.st51{clip-path:url(#SVGID_2_);fill:#DCE8F4;}
	.st52{clip-path:url(#SVGID_2_);fill:#DBE8F4;}
	.st53{clip-path:url(#SVGID_2_);fill:#DAE7F4;}
	.st54{clip-path:url(#SVGID_2_);fill:#D9E6F3;}
	.st55{clip-path:url(#SVGID_2_);fill:#D8E6F3;}
	.st56{clip-path:url(#SVGID_2_);fill:#D7E5F3;}
	.st57{clip-path:url(#SVGID_2_);fill:#D6E4F2;}
	.st58{clip-path:url(#SVGID_2_);fill:#D5E4F2;}
	.st59{clip-path:url(#SVGID_2_);fill:#D4E3F2;}
	.st60{clip-path:url(#SVGID_2_);fill:#D3E2F1;}
	.st61{clip-path:url(#SVGID_2_);fill:#D2E1F1;}
	.st62{clip-path:url(#SVGID_2_);fill:#D0E1F1;}
	.st63{clip-path:url(#SVGID_2_);fill:#CFE0F0;}
	.st64{clip-path:url(#SVGID_2_);fill:#CEDFF0;}
	.st65{clip-path:url(#SVGID_2_);fill:#CDDEF0;}
	.st66{clip-path:url(#SVGID_2_);fill:#CCDEEF;}
	.st67{clip-path:url(#SVGID_2_);fill:#CBDDEF;}
	.st68{clip-path:url(#SVGID_2_);fill:#C9DCEF;}
	.st69{clip-path:url(#SVGID_2_);fill:#C8DBEE;}
	.st70{clip-path:url(#SVGID_2_);fill:#C7DAEE;}
	.st71{clip-path:url(#SVGID_2_);fill:#C5D9ED;}
	.st72{clip-path:url(#SVGID_2_);fill:#C4D9ED;}
	.st73{clip-path:url(#SVGID_2_);fill:#C3D8ED;}
	.st74{clip-path:url(#SVGID_2_);fill:#C2D7EC;}
	.st75{clip-path:url(#SVGID_2_);fill:#C0D6EC;}
	.st76{clip-path:url(#SVGID_2_);fill:#BFD5EB;}
	.st77{clip-path:url(#SVGID_2_);fill:#BDD4EB;}
	.st78{clip-path:url(#SVGID_2_);fill:#BCD3EA;}
	.st79{clip-path:url(#SVGID_2_);fill:#BBD2EA;}
	.st80{clip-path:url(#SVGID_2_);fill:#B9D1EA;}
	.st81{clip-path:url(#SVGID_2_);fill:#B8D0E9;}
	.st82{clip-path:url(#SVGID_2_);fill:#B6D0E9;}
	.st83{clip-path:url(#SVGID_2_);fill:#B5CFE8;}
	.st84{clip-path:url(#SVGID_2_);fill:#B3CEE8;}
	.st85{clip-path:url(#SVGID_2_);fill:#B2CDE7;}
	.st86{clip-path:url(#SVGID_2_);fill:#B0CCE7;}
	.st87{clip-path:url(#SVGID_2_);fill:#AFCBE6;}
	.st88{clip-path:url(#SVGID_2_);fill:#ADCAE6;}
	.st89{clip-path:url(#SVGID_2_);fill:#ACC9E5;}
	.st90{clip-path:url(#SVGID_2_);fill:#AAC8E5;}
	.st91{clip-path:url(#SVGID_2_);fill:#A9C7E5;}
	.st92{clip-path:url(#SVGID_2_);fill:#A7C6E4;}
	.st93{clip-path:url(#SVGID_2_);fill:#A5C4E4;}
	.st94{clip-path:url(#SVGID_2_);fill:#A4C3E3;}
	.st95{clip-path:url(#SVGID_2_);fill:#A2C2E3;}
	.st96{clip-path:url(#SVGID_2_);fill:#A0C1E2;}
	.st97{clip-path:url(#SVGID_2_);fill:#9FC0E1;}
	.st98{clip-path:url(#SVGID_2_);fill:#9DBFE1;}
	.st99{clip-path:url(#SVGID_2_);fill:#9BBEE0;}
	.st100{clip-path:url(#SVGID_2_);fill:#9ABDE0;}
	.st101{clip-path:url(#SVGID_2_);fill:#98BCDF;}
	.st102{clip-path:url(#SVGID_2_);fill:#96BADF;}
	.st103{clip-path:url(#SVGID_2_);fill:#94B9DE;}
	.st104{clip-path:url(#SVGID_2_);fill:#92B8DE;}
	.st105{clip-path:url(#SVGID_2_);fill:#91B7DD;}
	.st106{clip-path:url(#SVGID_2_);fill:#8FB6DD;}
	.st107{clip-path:url(#SVGID_2_);fill:#8DB5DC;}
	.st108{clip-path:url(#SVGID_2_);fill:#8BB3DB;}
	.st109{clip-path:url(#SVGID_2_);fill:#89B2DB;}
	.st110{clip-path:url(#SVGID_2_);fill:#87B1DA;}
	.st111{clip-path:url(#SVGID_2_);fill:#85B0DA;}
	.st112{clip-path:url(#SVGID_2_);fill:#84AED9;}
	.st113{clip-path:url(#SVGID_2_);fill:#82ADD9;}
	.st114{clip-path:url(#SVGID_2_);fill:#80ACD8;}
	.st115{clip-path:url(#SVGID_2_);fill:#7EAAD7;}
	.st116{clip-path:url(#SVGID_2_);fill:#7CA9D7;}
	.st117{clip-path:url(#SVGID_2_);fill:#7AA8D6;}
	.st118{clip-path:url(#SVGID_2_);fill:#78A7D5;}
	.st119{clip-path:url(#SVGID_2_);fill:#76A5D5;}
	.st120{clip-path:url(#SVGID_2_);fill:#74A4D4;}
	.st121{clip-path:url(#SVGID_2_);fill:#71A3D4;}
	.st122{clip-path:url(#SVGID_2_);fill:#6FA1D3;}
	.st123{clip-path:url(#SVGID_2_);fill:#6DA0D2;}
	.st124{clip-path:url(#SVGID_2_);fill:#6B9ED2;}
	.st125{clip-path:url(#SVGID_2_);fill:#699DD1;}
	.st126{fill:#E8A200;}
	.st127{fill:#B22F2F;}
	.st128{fill:#EF3F3F;}
	.st129{fill:#FFC2B0;}
	.st130{fill:#EA9C92;}
	.st131{fill:#274F89;}
	.st132{opacity:0.2;}
	.st133{fill:#D5DAE0;}
	.st134{clip-path:url(#SVGID_4_);}
</style>
<g>
	<g>
		<path class="st0" d="M339.12,299.83l96.05-55.62c3.16-1.83,4.63-4.29,4.52-6.85l0.02,0.01l-0.04-13.94l-5.34,6.26
			c-0.35-0.23-0.7-0.46-1.07-0.67L236.77,115.93c-7.8-4.49-19.59-4.96-26.34-1.06l-94.7,54.84c-1.92-2.1-5.94-6.53-5.94-6.53
			l0.05,13.63l0,0c-0.14,3.07,2.05,6.35,6.45,8.88l196.48,113.08C320.59,303.26,332.38,303.73,339.12,299.83z"/>
		<path class="st1" d="M236.77,115.93c-7.8-4.49-19.59-4.96-26.34-1.06l-94.7,54.84c-1.92-2.1-5.94-6.53-5.94-6.53l0.05,13.63l0,0
			c-0.14,3.07,2.05,6.35,6.45,8.88l196.48,113.08c4.07,2.34,9.22,3.58,14.18,3.68l-0.19-134.73L236.77,115.93z"/>
		<path class="st2" d="M114.35,156.48l96.05-55.62c6.74-3.91,18.54-3.43,26.34,1.06l196.48,113.08c7.8,4.49,8.66,11.3,1.91,15.2
			l-96.05,55.62c-6.74,3.91-18.54,3.43-26.34-1.06L116.26,171.68C108.46,167.19,107.61,160.39,114.35,156.48z"/>
		<path class="st3" d="M339.16,287.3l96.05-55.62c3.48-2.01,4.92-4.8,4.44-7.64c-0.17,2.31-1.65,4.49-4.52,6.15l-96.05,55.62
			c-6.74,3.91-18.54,3.43-26.34-1.06L116.26,171.68c-3.78-2.17-5.91-4.89-6.36-7.56c-0.23,3.12,1.95,6.47,6.43,9.05l196.48,113.08
			C320.62,290.73,332.41,291.21,339.16,287.3z"/>
		<path class="st4" d="M121.75,158.67l92.29-53.44c5.01-2.9,13.78-2.55,19.58,0.78l193.69,111.47c5.8,3.34,6.43,8.4,1.42,11.3
			l-92.29,53.44c-5.01,2.9-13.78,2.55-19.58-0.78L123.17,169.97C117.37,166.63,116.74,161.57,121.75,158.67z"/>
	</g>
	<g>
		<g>
			<defs>
				
					<ellipse id="SVGID_1_" transform="matrix(0.8869 -0.4619 0.4619 0.8869 -75.8059 140.1431)" cx="248.37" cy="224.92" rx="70.78" ry="40.86"/>
			</defs>
			<clipPath id="SVGID_2_">
				<use xlink:href="#SVGID_1_"  style="overflow:visible;"/>
			</clipPath>
			<rect x="173.49" y="174.79" class="st5" width="149.76" height="100.26"/>
			
				<ellipse transform="matrix(0.8917 -0.4526 0.4526 0.8917 -74.9013 136.7566)" class="st5" cx="248.37" cy="224.92" rx="65.56" ry="35.55"/>
			
				<ellipse transform="matrix(0.8917 -0.4526 0.4526 0.8917 -74.9013 136.7566)" class="st5" cx="248.37" cy="224.92" rx="65.12" ry="35.31"/>
			
				<ellipse transform="matrix(0.8917 -0.4526 0.4526 0.8917 -74.9012 136.7563)" class="st5" cx="248.37" cy="224.92" rx="64.68" ry="35.07"/>
			
				<ellipse transform="matrix(0.8917 -0.4526 0.4526 0.8917 -74.9013 136.7564)" class="st5" cx="248.37" cy="224.92" rx="64.25" ry="34.84"/>
			
				<ellipse transform="matrix(0.8917 -0.4526 0.4526 0.8917 -74.9012 136.7562)" class="st5" cx="248.37" cy="224.92" rx="63.81" ry="34.6"/>
			
				<ellipse transform="matrix(0.8917 -0.4526 0.4526 0.8917 -74.9012 136.7563)" class="st5" cx="248.37" cy="224.92" rx="63.37" ry="34.36"/>
			
				<ellipse transform="matrix(0.8917 -0.4526 0.4526 0.8917 -74.9012 136.7562)" class="st5" cx="248.37" cy="224.92" rx="62.93" ry="34.12"/>
			
				<ellipse transform="matrix(0.8917 -0.4526 0.4526 0.8917 -74.9013 136.7564)" class="st5" cx="248.37" cy="224.92" rx="62.5" ry="33.89"/>
			
				<ellipse transform="matrix(0.8917 -0.4526 0.4526 0.8917 -74.9012 136.756)" class="st5" cx="248.37" cy="224.92" rx="62.06" ry="33.65"/>
			
				<ellipse transform="matrix(0.8917 -0.4526 0.4526 0.8917 -74.9013 136.7565)" class="st5" cx="248.37" cy="224.92" rx="61.62" ry="33.41"/>
			
				<ellipse transform="matrix(0.8917 -0.4526 0.4526 0.8917 -74.9012 136.7561)" class="st5" cx="248.37" cy="224.92" rx="61.19" ry="33.18"/>
			
				<ellipse transform="matrix(0.8917 -0.4526 0.4526 0.8917 -74.9013 136.7565)" class="st6" cx="248.37" cy="224.92" rx="60.75" ry="32.94"/>
			
				<ellipse transform="matrix(0.8917 -0.4526 0.4526 0.8917 -74.9013 136.7567)" class="st6" cx="248.37" cy="224.92" rx="60.31" ry="32.7"/>
			
				<ellipse transform="matrix(0.8917 -0.4526 0.4526 0.8917 -74.9013 136.7565)" class="st7" cx="248.37" cy="224.92" rx="59.88" ry="32.47"/>
			
				<ellipse transform="matrix(0.8917 -0.4526 0.4526 0.8917 -74.9013 136.7566)" class="st7" cx="248.37" cy="224.92" rx="59.44" ry="32.23"/>
			
				<ellipse transform="matrix(0.8917 -0.4526 0.4526 0.8917 -74.9013 136.7566)" class="st7" cx="248.37" cy="224.92" rx="59" ry="31.99"/>
			
				<ellipse transform="matrix(0.8917 -0.4526 0.4526 0.8917 -74.9012 136.7563)" class="st7" cx="248.37" cy="224.92" rx="58.56" ry="31.76"/>
			
				<ellipse transform="matrix(0.8917 -0.4526 0.4526 0.8917 -74.9012 136.7563)" class="st7" cx="248.37" cy="224.92" rx="58.13" ry="31.52"/>
			
				<ellipse transform="matrix(0.8917 -0.4526 0.4526 0.8917 -74.9011 136.756)" class="st8" cx="248.37" cy="224.92" rx="57.69" ry="31.28"/>
			
				<ellipse transform="matrix(0.8917 -0.4526 0.4526 0.8917 -74.9013 136.7565)" class="st8" cx="248.37" cy="224.92" rx="57.25" ry="31.04"/>
			
				<ellipse transform="matrix(0.8917 -0.4526 0.4526 0.8917 -74.9012 136.7563)" class="st8" cx="248.37" cy="224.92" rx="56.82" ry="30.81"/>
			
				<ellipse transform="matrix(0.8917 -0.4526 0.4526 0.8917 -74.9012 136.7561)" class="st9" cx="248.37" cy="224.92" rx="56.38" ry="30.57"/>
			
				<ellipse transform="matrix(0.8917 -0.4526 0.4526 0.8917 -74.9012 136.7562)" class="st10" cx="248.37" cy="224.92" rx="55.94" ry="30.33"/>
			
				<ellipse transform="matrix(0.8917 -0.4526 0.4526 0.8917 -74.9011 136.756)" class="st10" cx="248.37" cy="224.92" rx="55.51" ry="30.1"/>
			
				<ellipse transform="matrix(0.8917 -0.4526 0.4526 0.8917 -74.9013 136.7567)" class="st10" cx="248.37" cy="224.92" rx="55.07" ry="29.86"/>
			
				<ellipse transform="matrix(0.8917 -0.4526 0.4526 0.8917 -74.9014 136.7569)" class="st10" cx="248.37" cy="224.92" rx="54.63" ry="29.62"/>
			
				<ellipse transform="matrix(0.8917 -0.4526 0.4526 0.8917 -74.9013 136.7565)" class="st11" cx="248.37" cy="224.92" rx="54.19" ry="29.39"/>
			
				<ellipse transform="matrix(0.8917 -0.4526 0.4526 0.8917 -74.9014 136.7568)" class="st12" cx="248.37" cy="224.92" rx="53.76" ry="29.15"/>
			
				<ellipse transform="matrix(0.8917 -0.4526 0.4526 0.8917 -74.9012 136.7563)" class="st12" cx="248.37" cy="224.92" rx="53.32" ry="28.91"/>
			
				<ellipse transform="matrix(0.8917 -0.4526 0.4526 0.8917 -74.9014 136.7568)" class="st13" cx="248.37" cy="224.92" rx="52.88" ry="28.67"/>
			
				<ellipse transform="matrix(0.8917 -0.4526 0.4526 0.8917 -74.9014 136.7569)" class="st14" cx="248.37" cy="224.92" rx="52.45" ry="28.44"/>
			
				<ellipse transform="matrix(0.8917 -0.4526 0.4526 0.8917 -74.9012 136.7563)" class="st14" cx="248.37" cy="224.92" rx="52.01" ry="28.2"/>
			
				<ellipse transform="matrix(0.8917 -0.4526 0.4526 0.8917 -74.9013 136.7566)" class="st15" cx="248.37" cy="224.92" rx="51.57" ry="27.96"/>
			
				<ellipse transform="matrix(0.8917 -0.4526 0.4526 0.8917 -74.9013 136.7566)" class="st15" cx="248.37" cy="224.92" rx="51.13" ry="27.73"/>
			
				<ellipse transform="matrix(0.8917 -0.4526 0.4526 0.8917 -74.9013 136.7566)" class="st15" cx="248.37" cy="224.92" rx="50.7" ry="27.49"/>
			
				<ellipse transform="matrix(0.8917 -0.4526 0.4526 0.8917 -74.9013 136.7567)" class="st16" cx="248.37" cy="224.92" rx="50.26" ry="27.25"/>
			
				<ellipse transform="matrix(0.8917 -0.4526 0.4526 0.8917 -74.9012 136.7564)" class="st17" cx="248.37" cy="224.92" rx="49.82" ry="27.02"/>
			
				<ellipse transform="matrix(0.8917 -0.4526 0.4526 0.8917 -74.9014 136.757)" class="st18" cx="248.37" cy="224.92" rx="49.39" ry="26.78"/>
			
				<ellipse transform="matrix(0.8917 -0.4526 0.4526 0.8917 -74.9014 136.757)" class="st19" cx="248.37" cy="224.92" rx="48.95" ry="26.54"/>
			
				<ellipse transform="matrix(0.8917 -0.4526 0.4526 0.8917 -74.9015 136.7572)" class="st20" cx="248.37" cy="224.92" rx="48.51" ry="26.3"/>
			
				<ellipse transform="matrix(0.8917 -0.4526 0.4526 0.8917 -74.9014 136.7568)" class="st20" cx="248.37" cy="224.92" rx="48.08" ry="26.07"/>
			
				<ellipse transform="matrix(0.8917 -0.4526 0.4526 0.8917 -74.9012 136.7564)" class="st21" cx="248.37" cy="224.92" rx="47.64" ry="25.83"/>
			
				<ellipse transform="matrix(0.8917 -0.4526 0.4526 0.8917 -74.9013 136.7567)" class="st22" cx="248.37" cy="224.92" rx="47.2" ry="25.59"/>
			
				<ellipse transform="matrix(0.8917 -0.4526 0.4526 0.8917 -74.9014 136.757)" class="st23" cx="248.37" cy="224.92" rx="46.76" ry="25.36"/>
			
				<ellipse transform="matrix(0.8917 -0.4526 0.4526 0.8917 -74.9013 136.7566)" class="st23" cx="248.37" cy="224.92" rx="46.33" ry="25.12"/>
			
				<ellipse transform="matrix(0.8917 -0.4526 0.4526 0.8917 -74.9014 136.7569)" class="st24" cx="248.37" cy="224.92" rx="45.89" ry="24.88"/>
			
				<ellipse transform="matrix(0.8917 -0.4526 0.4526 0.8917 -74.9012 136.7563)" class="st24" cx="248.37" cy="224.92" rx="45.45" ry="24.65"/>
			
				<ellipse transform="matrix(0.8917 -0.4526 0.4526 0.8917 -74.9013 136.7564)" class="st25" cx="248.37" cy="224.92" rx="45.02" ry="24.41"/>
			
				<ellipse transform="matrix(0.8917 -0.4526 0.4526 0.8917 -74.9013 136.7565)" class="st26" cx="248.37" cy="224.92" rx="44.58" ry="24.17"/>
			
				<ellipse transform="matrix(0.8917 -0.4526 0.4526 0.8917 -74.9013 136.7567)" class="st27" cx="248.37" cy="224.92" rx="44.14" ry="23.93"/>
			
				<ellipse transform="matrix(0.8917 -0.4526 0.4526 0.8917 -74.9014 136.757)" class="st28" cx="248.37" cy="224.92" rx="43.7" ry="23.7"/>
			
				<ellipse transform="matrix(0.8917 -0.4526 0.4526 0.8917 -74.9013 136.7564)" class="st29" cx="248.37" cy="224.92" rx="43.27" ry="23.46"/>
			
				<ellipse transform="matrix(0.8917 -0.4526 0.4526 0.8917 -74.9014 136.7568)" class="st30" cx="248.37" cy="224.92" rx="42.83" ry="23.22"/>
			
				<ellipse transform="matrix(0.8917 -0.4526 0.4526 0.8917 -74.9015 136.7572)" class="st31" cx="248.37" cy="224.92" rx="42.39" ry="22.99"/>
			
				<ellipse transform="matrix(0.8917 -0.4526 0.4526 0.8917 -74.9013 136.7567)" class="st31" cx="248.37" cy="224.92" rx="41.96" ry="22.75"/>
			
				<ellipse transform="matrix(0.8917 -0.4526 0.4526 0.8917 -74.9014 136.7568)" class="st32" cx="248.37" cy="224.92" rx="41.52" ry="22.51"/>
			
				<ellipse transform="matrix(0.8917 -0.4526 0.4526 0.8917 -74.9014 136.7569)" class="st33" cx="248.37" cy="224.92" rx="41.08" ry="22.28"/>
			
				<ellipse transform="matrix(0.8917 -0.4526 0.4526 0.8917 -74.9012 136.7562)" class="st34" cx="248.37" cy="224.92" rx="40.65" ry="22.04"/>
			
				<ellipse transform="matrix(0.8917 -0.4526 0.4526 0.8917 -74.9014 136.7567)" class="st35" cx="248.37" cy="224.92" rx="40.21" ry="21.8"/>
			
				<ellipse transform="matrix(0.8917 -0.4526 0.4526 0.8917 -74.9014 136.7567)" class="st36" cx="248.37" cy="224.92" rx="39.77" ry="21.56"/>
			
				<ellipse transform="matrix(0.8917 -0.4526 0.4526 0.8917 -74.9013 136.7565)" class="st37" cx="248.37" cy="224.92" rx="39.33" ry="21.33"/>
			
				<ellipse transform="matrix(0.8917 -0.4526 0.4526 0.8917 -74.9013 136.7565)" class="st38" cx="248.37" cy="224.92" rx="38.9" ry="21.09"/>
			
				<ellipse transform="matrix(0.8917 -0.4526 0.4526 0.8917 -74.9012 136.7563)" class="st39" cx="248.37" cy="224.92" rx="38.46" ry="20.85"/>
			
				<ellipse transform="matrix(0.8917 -0.4526 0.4526 0.8917 -74.9015 136.7573)" class="st40" cx="248.37" cy="224.92" rx="38.02" ry="20.62"/>
			
				<ellipse transform="matrix(0.8917 -0.4526 0.4526 0.8917 -74.9013 136.7565)" class="st41" cx="248.37" cy="224.92" rx="37.59" ry="20.38"/>
			
				<ellipse transform="matrix(0.8917 -0.4526 0.4526 0.8917 -74.9014 136.7569)" class="st42" cx="248.37" cy="224.92" rx="37.15" ry="20.14"/>
			
				<ellipse transform="matrix(0.8917 -0.4526 0.4526 0.8917 -74.9014 136.7571)" class="st42" cx="248.37" cy="224.92" rx="36.71" ry="19.91"/>
			
				<ellipse transform="matrix(0.8917 -0.4526 0.4526 0.8917 -74.9012 136.7564)" class="st43" cx="248.37" cy="224.92" rx="36.27" ry="19.67"/>
			
				<ellipse transform="matrix(0.8917 -0.4526 0.4526 0.8917 -74.9013 136.7565)" class="st44" cx="248.37" cy="224.92" rx="35.84" ry="19.43"/>
			
				<ellipse transform="matrix(0.8917 -0.4526 0.4526 0.8917 -74.9011 136.7558)" class="st45" cx="248.37" cy="224.92" rx="35.4" ry="19.2"/>
			
				<ellipse transform="matrix(0.8917 -0.4526 0.4526 0.8917 -74.9011 136.756)" class="st46" cx="248.37" cy="224.92" rx="34.96" ry="18.96"/>
			
				<ellipse transform="matrix(0.8917 -0.4526 0.4526 0.8917 -74.9012 136.7561)" class="st47" cx="248.37" cy="224.92" rx="34.53" ry="18.72"/>
			
				<ellipse transform="matrix(0.8917 -0.4526 0.4526 0.8917 -74.9013 136.7564)" class="st48" cx="248.37" cy="224.92" rx="34.09" ry="18.48"/>
			
				<ellipse transform="matrix(0.8917 -0.4526 0.4526 0.8917 -74.9013 136.7566)" class="st49" cx="248.37" cy="224.92" rx="33.65" ry="18.25"/>
			
				<ellipse transform="matrix(0.8917 -0.4526 0.4526 0.8917 -74.9012 136.7563)" class="st50" cx="248.37" cy="224.92" rx="33.22" ry="18.01"/>
			
				<ellipse transform="matrix(0.8917 -0.4526 0.4526 0.8917 -74.9011 136.7558)" class="st51" cx="248.37" cy="224.92" rx="32.78" ry="17.77"/>
			
				<ellipse transform="matrix(0.8917 -0.4526 0.4526 0.8917 -74.9014 136.7569)" class="st52" cx="248.37" cy="224.92" rx="32.34" ry="17.54"/>
			
				<ellipse transform="matrix(0.8917 -0.4526 0.4526 0.8917 -74.9013 136.7566)" class="st53" cx="248.37" cy="224.92" rx="31.9" ry="17.3"/>
			
				<ellipse transform="matrix(0.8917 -0.4526 0.4526 0.8917 -74.9013 136.7566)" class="st54" cx="248.37" cy="224.92" rx="31.47" ry="17.06"/>
			
				<ellipse transform="matrix(0.8917 -0.4526 0.4526 0.8917 -74.9014 136.7569)" class="st55" cx="248.37" cy="224.92" rx="31.03" ry="16.83"/>
			
				<ellipse transform="matrix(0.8917 -0.4526 0.4526 0.8917 -74.9012 136.7563)" class="st56" cx="248.37" cy="224.92" rx="30.59" ry="16.59"/>
			
				<ellipse transform="matrix(0.8917 -0.4526 0.4526 0.8917 -74.9011 136.756)" class="st57" cx="248.37" cy="224.92" rx="30.16" ry="16.35"/>
			
				<ellipse transform="matrix(0.8917 -0.4526 0.4526 0.8917 -74.9012 136.7563)" class="st58" cx="248.37" cy="224.92" rx="29.72" ry="16.11"/>
			
				<ellipse transform="matrix(0.8917 -0.4526 0.4526 0.8917 -74.9012 136.7563)" class="st59" cx="248.37" cy="224.92" rx="29.28" ry="15.88"/>
			
				<ellipse transform="matrix(0.8917 -0.4526 0.4526 0.8917 -74.9012 136.7563)" class="st60" cx="248.37" cy="224.92" rx="28.85" ry="15.64"/>
			
				<ellipse transform="matrix(0.8917 -0.4526 0.4526 0.8917 -74.9012 136.7561)" class="st61" cx="248.37" cy="224.92" rx="28.41" ry="15.4"/>
			
				<ellipse transform="matrix(0.8917 -0.4526 0.4526 0.8917 -74.9012 136.7561)" class="st62" cx="248.37" cy="224.92" rx="27.97" ry="15.17"/>
			
				<ellipse transform="matrix(0.8917 -0.4526 0.4526 0.8917 -74.9012 136.7563)" class="st63" cx="248.37" cy="224.92" rx="27.53" ry="14.93"/>
			
				<ellipse transform="matrix(0.8917 -0.4526 0.4526 0.8917 -74.9013 136.7565)" class="st64" cx="248.37" cy="224.92" rx="27.1" ry="14.69"/>
			
				<ellipse transform="matrix(0.8917 -0.4526 0.4526 0.8917 -74.9014 136.7571)" class="st65" cx="248.37" cy="224.92" rx="26.66" ry="14.46"/>
			
				<ellipse transform="matrix(0.8917 -0.4526 0.4526 0.8917 -74.9012 136.7561)" class="st66" cx="248.37" cy="224.92" rx="26.22" ry="14.22"/>
			
				<ellipse transform="matrix(0.8917 -0.4526 0.4526 0.8917 -74.9012 136.7563)" class="st67" cx="248.37" cy="224.92" rx="25.79" ry="13.98"/>
			<path class="st68" d="M270.98,213.45c3.44,6.77-3.9,17.39-16.38,23.73c-12.48,6.34-25.39,5.98-28.82-0.78
				c-3.44-6.77,3.9-17.39,16.38-23.73C254.64,206.33,267.54,206.68,270.98,213.45z"/>
			
				<ellipse transform="matrix(0.8917 -0.4526 0.4526 0.8917 -74.9011 136.756)" class="st69" cx="248.37" cy="224.92" rx="24.91" ry="13.51"/>
			
				<ellipse transform="matrix(0.8917 -0.4526 0.4526 0.8917 -74.9011 136.756)" class="st70" cx="248.37" cy="224.92" rx="24.47" ry="13.27"/>
			<path class="st71" d="M269.81,214.04c3.26,6.42-3.7,16.49-15.54,22.5s-24.08,5.67-27.33-0.74c-3.26-6.42,3.7-16.49,15.54-22.5
				C254.31,207.29,266.55,207.63,269.81,214.04z"/>
			
				<ellipse transform="matrix(0.8917 -0.4526 0.4526 0.8917 -74.9011 136.756)" class="st72" cx="248.37" cy="224.92" rx="23.6" ry="12.8"/>
			
				<ellipse transform="matrix(0.8917 -0.4526 0.4526 0.8917 -74.9014 136.7568)" class="st73" cx="248.37" cy="224.92" rx="23.16" ry="12.56"/>
			
				<ellipse transform="matrix(0.8917 -0.4526 0.4526 0.8917 -74.901 136.7555)" class="st74" cx="248.37" cy="224.92" rx="22.73" ry="12.32"/>
			
				<ellipse transform="matrix(0.8917 -0.4526 0.4526 0.8917 -74.9011 136.756)" class="st75" cx="248.37" cy="224.92" rx="22.29" ry="12.09"/>
			<path class="st76" d="M267.86,215.03c2.96,5.84-3.36,14.99-14.12,20.46s-21.89,5.16-24.85-0.68
				c-2.96-5.84,3.36-14.99,14.12-20.46C253.77,208.9,264.9,209.2,267.86,215.03z"/>
			
				<ellipse transform="matrix(0.8917 -0.4526 0.4526 0.8917 -74.9014 136.7569)" class="st77" cx="248.37" cy="224.92" rx="21.42" ry="11.61"/>
			
				<ellipse transform="matrix(0.8917 -0.4526 0.4526 0.8917 -74.9017 136.7579)" class="st78" cx="248.37" cy="224.92" rx="20.98" ry="11.37"/>
			<path class="st79" d="M266.69,215.63c2.78,5.49-3.16,14.09-13.28,19.23c-10.12,5.13-20.57,4.85-23.36-0.64
				c-2.78-5.49,3.16-14.09,13.28-19.23C253.45,209.86,263.91,210.14,266.69,215.63z"/>
			
				<ellipse transform="matrix(0.8917 -0.4526 0.4526 0.8917 -74.9011 136.756)" class="st80" cx="248.37" cy="224.92" rx="20.1" ry="10.9"/>
			
				<ellipse transform="matrix(0.8917 -0.4526 0.4526 0.8917 -74.9013 136.7567)" class="st81" cx="248.37" cy="224.92" rx="19.67" ry="10.66"/>
			
				<ellipse transform="matrix(0.8917 -0.4526 0.4526 0.8917 -74.9013 136.7565)" class="st82" cx="248.37" cy="224.92" rx="19.23" ry="10.43"/>
			<path class="st83" d="M265.13,216.42c2.55,5.02-2.89,12.89-12.15,17.59c-9.26,4.7-18.82,4.44-21.37-0.58s2.89-12.89,12.15-17.59
				C253.02,211.14,262.58,211.4,265.13,216.42z"/>
			
				<ellipse transform="matrix(0.8917 -0.4526 0.4526 0.8917 -74.9008 136.7549)" class="st84" cx="248.37" cy="224.92" rx="18.36" ry="9.95"/>
			
				<ellipse transform="matrix(0.8917 -0.4526 0.4526 0.8917 -74.901 136.7557)" class="st85" cx="248.37" cy="224.92" rx="17.92" ry="9.72"/>
			
				<ellipse transform="matrix(0.8917 -0.4526 0.4526 0.8917 -74.9011 136.756)" class="st86" cx="248.37" cy="224.92" rx="17.48" ry="9.48"/>
			<path class="st87" d="M263.57,217.21c2.31,4.55-2.62,11.7-11.02,15.96c-8.39,4.26-17.07,4.02-19.38-0.53
				c-2.31-4.55,2.62-11.7,11.02-15.96C252.58,212.42,261.26,212.66,263.57,217.21z"/>
			
				<ellipse transform="matrix(0.8917 -0.4526 0.4526 0.8917 -74.9013 136.7566)" class="st88" cx="248.37" cy="224.92" rx="16.61" ry="9.01"/>
			<path class="st89" d="M262.79,217.6c2.19,4.32-2.49,11.1-10.45,15.14c-7.96,4.04-16.2,3.82-18.39-0.5
				c-2.19-4.32,2.49-11.1,10.45-15.14C252.37,213.06,260.6,213.29,262.79,217.6z"/>
			
				<ellipse transform="matrix(0.8917 -0.4526 0.4526 0.8917 -74.9016 136.7579)" class="st90" cx="248.37" cy="224.92" rx="15.73" ry="8.53"/>
			<path class="st91" d="M262.01,218c2.07,4.08-2.35,10.5-9.89,14.32c-7.53,3.82-15.32,3.61-17.39-0.47
				c-2.07-4.08,2.35-10.5,9.89-14.32C252.15,213.7,259.94,213.92,262.01,218z"/>
			<path class="st92" d="M261.62,218.2c2.01,3.97-2.29,10.2-9.6,13.91c-7.32,3.71-14.88,3.51-16.9-0.46
				c-2.01-3.97,2.29-10.2,9.6-13.91C252.04,214.02,259.61,214.23,261.62,218.2z"/>
			<path class="st93" d="M261.23,218.4c1.95,3.85-2.22,9.9-9.32,13.5c-7.1,3.6-14.45,3.4-16.4-0.45c-1.95-3.85,2.22-9.9,9.32-13.5
				C251.94,214.34,259.28,214.54,261.23,218.4z"/>
			
				<ellipse transform="matrix(0.8917 -0.4526 0.4526 0.8917 -74.9011 136.756)" class="st94" cx="248.37" cy="224.92" rx="13.99" ry="7.58"/>
			<path class="st95" d="M260.45,218.79c1.84,3.62-2.08,9.3-8.76,12.68c-6.67,3.39-13.57,3.2-15.41-0.42
				c-1.84-3.62,2.08-9.3,8.76-12.68C251.72,214.99,258.62,215.17,260.45,218.79z"/>
			
				<ellipse transform="matrix(0.8917 -0.4526 0.4526 0.8917 -74.9015 136.7575)" class="st96" cx="248.37" cy="224.92" rx="13.11" ry="7.11"/>
			<path class="st97" d="M259.68,219.19c1.72,3.38-1.95,8.7-8.19,11.86c-6.24,3.17-12.69,2.99-14.41-0.39
				c-1.72-3.38,1.95-8.7,8.19-11.86C251.5,215.63,257.96,215.8,259.68,219.19z"/>
			
				<ellipse transform="matrix(0.8917 -0.4526 0.4526 0.8917 -74.9014 136.7568)" class="st98" cx="248.37" cy="224.92" rx="12.24" ry="6.64"/>
			<path class="st99" d="M258.9,219.58c1.6,3.15-1.82,8.1-7.63,11.05c-5.81,2.95-11.82,2.79-13.42-0.37
				c-1.6-3.15,1.82-8.1,7.63-11.05C251.29,216.27,257.3,216.43,258.9,219.58z"/>
			<path class="st100" d="M258.51,219.78c1.54,3.03-1.75,7.8-7.34,10.64c-5.6,2.84-11.38,2.68-12.92-0.35
				c-1.54-3.03,1.75-7.8,7.34-10.64C251.18,216.59,256.97,216.75,258.51,219.78z"/>
			
				<ellipse transform="matrix(0.8917 -0.4526 0.4526 0.8917 -74.9015 136.7573)" class="st101" cx="248.37" cy="224.92" rx="10.93" ry="5.92"/>
			
				<ellipse transform="matrix(0.8917 -0.4526 0.4526 0.8917 -74.9014 136.7569)" class="st102" cx="248.37" cy="224.92" rx="10.49" ry="5.69"/>
			<path class="st103" d="M257.34,220.37c1.36,2.68-1.55,6.9-6.5,9.41c-4.95,2.51-10.07,2.37-11.43-0.31
				c-1.36-2.68,1.55-6.9,6.5-9.41C250.86,217.55,255.97,217.69,257.34,220.37z"/>
			<path class="st104" d="M256.95,220.57c1.3,2.57-1.48,6.6-6.21,9c-4.74,2.4-9.63,2.27-10.93-0.3s1.48-6.6,6.21-9
				C250.75,217.87,255.64,218,256.95,220.57z"/>
			
				<ellipse transform="matrix(0.8917 -0.4526 0.4526 0.8917 -74.9017 136.7582)" class="st105" cx="248.37" cy="224.92" rx="9.18" ry="4.98"/>
			<path class="st106" d="M256.17,220.97c1.18,2.33-1.34,6-5.65,8.18c-4.3,2.18-8.75,2.06-9.94-0.27c-1.18-2.33,1.34-6,5.65-8.18
				C250.53,218.51,254.98,218.63,256.17,220.97z"/>
			<path class="st107" d="M255.78,221.17c1.13,2.22-1.28,5.7-5.37,7.77c-4.09,2.08-8.32,1.96-9.44-0.26s1.28-5.7,5.37-7.77
				S254.65,218.95,255.78,221.17z"/>
			<path class="st108" d="M255.39,221.36c1.07,2.1-1.21,5.4-5.08,7.36c-3.87,1.97-7.88,1.86-8.95-0.24c-1.07-2.1,1.21-5.4,5.08-7.36
				C250.32,219.15,254.32,219.26,255.39,221.36z"/>
			
				<ellipse transform="matrix(0.8917 -0.4526 0.4526 0.8917 -74.9019 136.7587)" class="st109" cx="248.37" cy="224.92" rx="7.43" ry="4.03"/>
			<path class="st110" d="M254.61,221.76c0.95,1.87-1.08,4.8-4.52,6.55c-3.44,1.75-7,1.65-7.95-0.22c-0.95-1.87,1.08-4.8,4.52-6.55
				C250.1,219.79,253.66,219.89,254.61,221.76z"/>
			<path class="st111" d="M254.22,221.96c0.89,1.75-1.01,4.5-4.24,6.14c-3.23,1.64-6.57,1.55-7.45-0.2
				c-0.89-1.75,1.01-4.5,4.24-6.14C249.99,220.11,253.33,220.21,254.22,221.96z"/>
			<path class="st112" d="M253.83,222.15c0.83,1.63-0.94,4.2-3.95,5.73c-3.01,1.53-6.13,1.44-6.96-0.19
				c-0.83-1.63,0.94-4.2,3.95-5.73S253,220.52,253.83,222.15z"/>
			<path class="st113" d="M253.44,222.35c0.77,1.52-0.87,3.9-3.67,5.32c-2.8,1.42-5.69,1.34-6.46-0.18
				c-0.77-1.52,0.87-3.9,3.67-5.32C249.78,220.76,252.67,220.83,253.44,222.35z"/>
			<path class="st114" d="M253.05,222.55c0.71,1.4-0.81,3.6-3.39,4.91c-2.58,1.31-5.25,1.24-5.96-0.16c-0.71-1.4,0.81-3.6,3.39-4.91
				C249.67,221.08,252.34,221.15,253.05,222.55z"/>
			<path class="st115" d="M252.66,222.75c0.65,1.28-0.74,3.3-3.11,4.5c-2.37,1.2-4.82,1.13-5.47-0.15c-0.65-1.28,0.74-3.3,3.11-4.5
				C249.56,221.4,252.01,221.46,252.66,222.75z"/>
			<path class="st116" d="M252.27,222.95c0.59,1.17-0.67,3-2.82,4.09c-2.15,1.09-4.38,1.03-4.97-0.14s0.67-3,2.82-4.09
				C249.45,221.72,251.68,221.78,252.27,222.95z"/>
			<path class="st117" d="M251.88,223.14c0.53,1.05-0.61,2.7-2.54,3.68c-1.94,0.98-3.94,0.93-4.47-0.12
				c-0.53-1.05,0.61-2.7,2.54-3.68C249.34,222.04,251.35,222.09,251.88,223.14z"/>
			<path class="st118" d="M251.49,223.34c0.47,0.93-0.54,2.4-2.26,3.27c-1.72,0.87-3.5,0.83-3.98-0.11
				c-0.47-0.93,0.54-2.4,2.26-3.27C249.24,222.36,251.02,222.41,251.49,223.34z"/>
			<path class="st119" d="M251.1,223.54c0.41,0.82-0.47,2.1-1.98,2.86c-1.51,0.76-3.06,0.72-3.48-0.09
				c-0.41-0.82,0.47-2.1,1.98-2.86C249.13,222.68,250.69,222.72,251.1,223.54z"/>
			<path class="st120" d="M250.71,223.74c0.36,0.7-0.4,1.8-1.69,2.45c-1.29,0.66-2.63,0.62-2.98-0.08c-0.36-0.7,0.4-1.8,1.69-2.45
				C249.02,223,250.36,223.04,250.71,223.74z"/>
			<path class="st121" d="M250.32,223.93c0.3,0.58-0.34,1.5-1.41,2.05c-1.08,0.55-2.19,0.52-2.48-0.07c-0.3-0.58,0.34-1.5,1.41-2.05
				C248.91,223.32,250.03,223.35,250.32,223.93z"/>
			<path class="st122" d="M249.93,224.13c0.24,0.47-0.27,1.2-1.13,1.64c-0.86,0.44-1.75,0.41-1.99-0.05
				c-0.24-0.47,0.27-1.2,1.13-1.64C248.8,223.64,249.69,223.67,249.93,224.13z"/>
			<path class="st123" d="M249.54,224.33c0.18,0.35-0.2,0.9-0.85,1.23c-0.65,0.33-1.31,0.31-1.49-0.04c-0.18-0.35,0.2-0.9,0.85-1.23
				C248.7,223.96,249.36,223.98,249.54,224.33z"/>
			<path class="st124" d="M249.15,224.53c0.12,0.23-0.13,0.6-0.57,0.82s-0.88,0.21-0.99-0.03c-0.12-0.23,0.13-0.6,0.57-0.82
				C248.59,224.28,249.03,224.29,249.15,224.53z"/>
			<path class="st125" d="M248.76,224.73c0.06,0.12-0.07,0.3-0.28,0.41c-0.22,0.11-0.44,0.1-0.5-0.01c-0.06-0.12,0.07-0.3,0.28-0.41
				C248.48,224.6,248.7,224.61,248.76,224.73z"/>
		</g>
	</g>
	<polygon class="st126" points="342.82,0 347.92,16.73 360.97,25.72 351.07,29.75 354.04,46.36 342.82,31.91 331.6,33.4 
		334.56,20.22 324.66,4.75 337.72,10.84 	"/>
	<path class="st127" d="M318.57,8.25l6.09-3.5l9.41,4.39c0,0-0.03,6.33,0,6.48c0.03,0.15-3.88,0.34-4.14,0.34
		C329.66,15.96,318.57,8.25,318.57,8.25z"/>
	<path class="st127" d="M354.04,46.36l-6.09,3.5l-2.97-16.6c0,0,2.95-3.12,2.94-3.12c-0.01,0,3.32,0.56,3.32,0.56L354.04,46.36z"/>
	<polygon class="st128" points="336.72,3.5 341.83,20.23 354.88,29.21 344.98,33.25 347.95,49.86 336.72,35.41 325.5,36.9 
		328.47,23.72 318.57,8.25 331.62,14.34 	"/>
	<path class="st3" d="M347.95,49.86l-2.97-16.6l9.9-4.04l-13.06-8.99l-5.1-16.73l-5.1,10.84l-13.06-6.09l0.91,1.42l12.58,5.87
		L336.54,6l4.51,14.79l11.94,8.22l-9.03,3.68l2.8,15.63L347.95,49.86z"/>
	<polygon class="st127" points="336.72,3.5 342.82,0 347.92,16.73 341.83,20.23 	"/>
	<polygon class="st127" points="360.97,25.72 354.88,29.21 341.83,20.23 347.92,16.73 	"/>
	<polygon class="st3" points="342.13,20.65 341.2,20.11 347.78,16.28 347.92,16.73 348.35,17.03 	"/>
	<polygon class="st126" points="384.43,23.82 389.53,40.55 402.59,49.54 392.69,53.57 395.65,70.18 384.43,55.73 373.21,57.22 
		376.18,44.04 366.28,28.57 379.33,34.66 	"/>
	<path class="st127" d="M360.18,32.07l6.09-3.5l9.41,4.39c0,0-0.03,6.33,0,6.48c0.03,0.15-3.88,0.34-4.14,0.34
		C371.28,39.78,360.18,32.07,360.18,32.07z"/>
	<path class="st127" d="M395.65,70.18l-6.09,3.5l-2.97-16.6c0,0,2.95-3.12,2.94-3.12c-0.01,0,3.32,0.56,3.32,0.56L395.65,70.18z"/>
	<polygon class="st128" points="378.34,27.32 383.44,44.05 396.5,53.03 386.59,57.07 389.56,73.68 378.34,59.23 367.12,60.72 
		370.09,47.54 360.18,32.07 373.24,38.16 	"/>
	<path class="st3" d="M389.56,73.68l-2.97-16.6l9.9-4.04l-13.06-8.99l-5.1-16.73l-5.1,10.84l-13.06-6.09l0.91,1.42l12.58,5.87
		l4.49-9.54l4.51,14.79l11.94,8.22l-9.03,3.68l2.8,15.63L389.56,73.68z"/>
	<polygon class="st127" points="378.34,27.32 384.43,23.82 389.53,40.55 383.44,44.05 	"/>
	<polygon class="st127" points="402.59,49.54 396.5,53.03 383.44,44.05 389.53,40.55 	"/>
	<polygon class="st3" points="383.74,44.47 382.82,43.93 389.4,40.1 389.53,40.55 389.97,40.85 	"/>
	<polygon class="st126" points="319.95,43.43 325.06,60.16 338.11,69.15 328.21,73.19 331.18,89.79 319.95,75.35 308.73,76.83 
		311.7,63.66 301.8,48.18 314.85,54.27 	"/>
	<path class="st127" d="M295.71,51.68l6.09-3.5l9.41,4.39c0,0-0.03,6.33,0,6.48c0.03,0.15-3.88,0.34-4.14,0.34
		C306.8,59.39,295.71,51.68,295.71,51.68z"/>
	<path class="st127" d="M331.18,89.79l-6.09,3.5l-2.97-16.6c0,0,2.95-3.12,2.94-3.12c-0.01,0,3.32,0.56,3.32,0.56L331.18,89.79z"/>
	<polygon class="st128" points="313.86,46.93 318.96,63.66 332.02,72.65 322.12,76.69 325.08,93.29 313.86,78.84 302.64,80.33 
		305.61,67.16 295.71,51.68 308.76,57.77 	"/>
	<path class="st3" d="M325.08,93.29l-2.97-16.6l9.9-4.04l-13.06-8.99l-5.1-16.73l-5.1,10.84l-13.06-6.09l0.91,1.42l12.58,5.87
		l4.49-9.54l4.51,14.79l11.94,8.22l-9.03,3.68l2.8,15.63L325.08,93.29z"/>
	<polygon class="st127" points="313.86,46.93 319.95,43.43 325.06,60.16 318.96,63.66 	"/>
	<polygon class="st127" points="338.11,69.15 332.02,72.65 318.96,63.66 325.06,60.16 	"/>
	<polygon class="st3" points="319.27,64.08 318.34,63.55 324.92,59.72 325.06,60.16 325.49,60.46 	"/>
	<polygon class="st126" points="361.57,67.26 366.67,83.99 379.73,92.97 369.82,97.01 372.79,113.61 361.57,99.17 350.35,100.66 
		353.32,87.48 343.41,72 356.47,78.1 	"/>
	<path class="st127" d="M337.32,75.5l6.09-3.5l9.41,4.39c0,0-0.03,6.33,0,6.48c0.03,0.15-3.88,0.34-4.14,0.34
		C348.42,83.21,337.32,75.5,337.32,75.5z"/>
	<path class="st127" d="M372.79,113.61l-6.09,3.5l-2.97-16.6c0,0,2.95-3.12,2.94-3.12c-0.01,0,3.32,0.56,3.32,0.56L372.79,113.61z"
		/>
	<polygon class="st128" points="355.48,70.75 360.58,87.48 373.63,96.47 363.73,100.51 366.7,117.11 355.48,102.66 344.26,104.15 
		347.22,90.98 337.32,75.5 350.38,81.59 	"/>
	<path class="st3" d="M366.7,117.11l-2.97-16.6l9.9-4.04l-13.06-8.99l-5.1-16.73l-5.1,10.84l-13.06-6.09l0.91,1.42l12.58,5.87
		l4.49-9.54l4.51,14.79l11.94,8.22l-9.03,3.68l2.8,15.63L366.7,117.11z"/>
	<polygon class="st127" points="355.48,70.75 361.57,67.26 366.67,83.99 360.58,87.48 	"/>
	<polygon class="st127" points="379.73,92.97 373.63,96.47 360.58,87.48 366.67,83.99 	"/>
	<polygon class="st3" points="360.88,87.9 359.95,87.37 366.53,83.54 366.67,83.99 367.1,84.28 	"/>
	<polygon class="st126" points="403.19,91.08 408.29,107.81 421.34,116.79 411.44,120.83 414.41,137.43 403.19,122.99 
		391.96,124.48 394.93,111.3 385.03,95.83 398.08,101.92 	"/>
	<path class="st127" d="M378.94,99.32l6.09-3.5l9.41,4.39c0,0-0.03,6.33,0,6.48c0.03,0.15-3.88,0.34-4.14,0.34
		C390.03,107.03,378.94,99.32,378.94,99.32z"/>
	<path class="st127" d="M414.41,137.43l-6.09,3.5l-2.97-16.6c0,0,2.95-3.12,2.94-3.12c-0.01,0,3.32,0.56,3.32,0.56L414.41,137.43z"
		/>
	<polygon class="st128" points="397.09,94.57 402.19,111.3 415.25,120.29 405.35,124.33 408.31,140.93 397.09,126.49 385.87,127.97 
		388.84,114.8 378.94,99.32 391.99,105.41 	"/>
	<path class="st3" d="M408.31,140.93l-2.97-16.6l9.9-4.04l-13.06-8.99l-5.1-16.73l-5.1,10.84l-13.06-6.09l0.91,1.42l12.58,5.87
		l4.49-9.54l4.51,14.79l11.94,8.22l-9.03,3.68l2.8,15.63L408.31,140.93z"/>
	<polygon class="st127" points="397.09,94.57 403.19,91.08 408.29,107.81 402.19,111.3 	"/>
	<polygon class="st127" points="421.34,116.79 415.25,120.29 402.19,111.3 408.29,107.81 	"/>
	<polygon class="st3" points="402.5,111.72 401.57,111.19 408.15,107.36 408.29,107.81 408.72,108.1 	"/>
	<g>
		<g>
			<g>
				<path class="st1" d="M227.31,290.55c0,0-5.6-2.82-9.03,1.38c-3.44,4.2-8.35,14.12-8.5,20.82c-0.15,6.7,5.3,6.25,8.55,4.66
					c3.24-1.59,12.72-15.33,13.29-18.02c0.57-2.69-0.68-6.33-1.59-7.05C229.12,291.64,227.31,290.55,227.31,290.55z"/>
				<path class="st2" d="M228.53,289.2l0.26,5.8c0.05,1.23-0.56,2.41-1.64,3.02c-0.98,0.55-2.4,0.98-4.32,0.67
					c-4.22-0.68-4.59-1.88-4.89-7.68C217.64,285.21,228.53,289.2,228.53,289.2z"/>
				<g>
					<path class="st1" d="M206.83,279.4c0,0-5.6-2.82-9.03,1.38c-3.44,4.2-8.35,14.12-8.5,20.82c-0.15,6.7,5.3,6.25,8.55,4.66
						c3.24-1.59,12.72-15.33,13.29-18.02c0.57-2.69-0.68-6.33-1.59-7.05C208.63,280.49,206.83,279.4,206.83,279.4z"/>
					<path class="st2" d="M208.05,278.06l0.26,5.8c0.06,1.23-0.56,2.41-1.64,3.02c-0.98,0.55-2.4,0.98-4.32,0.67
						c-4.22-0.68-4.59-1.88-4.89-7.68C197.16,274.07,208.05,278.06,208.05,278.06z"/>
					<path class="st4" d="M257.98,171.62c-1.66-26.95-29.18,3.96-29.18,3.96l-18.84,18.47l-16.97,18.64
						c-3.31,3.64-4.85,8.55-4.21,13.43l6.86,52.26c0.34,2.58,2.55,4.48,5.15,4.46c0.74-0.01,1.58-0.07,2.54-0.22
						c6.12-0.95,5.67-6.77,5.67-6.77l-1.25-48.88l35.63-21.48C243.38,205.49,259.63,198.57,257.98,171.62z"/>
				</g>
				<path class="st4" d="M278.46,181.89c-1.66-26.95-29.18,3.96-29.18,3.96l-18.84,18.47l-16.97,18.64
					c-3.31,3.64-4.85,8.55-4.21,13.43l6.86,52.26c0.34,2.58,2.55,4.48,5.15,4.46c0.74-0.01,1.58-0.07,2.54-0.22
					c6.12-0.95,5.67-6.77,5.67-6.77l-1.22-47.47l35.59-22.88C263.86,215.76,280.12,208.84,278.46,181.89z"/>
				<path class="st128" d="M262.18,95.39c20.87,8.65,20.45,20.99,20.45,20.99s-4.09,45.23-2.69,75.43
					c0.58,12.63-67.09,13.59-56.99-20.1c11.9-39.72,7.44-71.87,13.01-76.72C241.52,90.14,256.78,93.15,262.18,95.39z"/>
				<path class="st129" d="M268.89,106.32c-1.09,4.24-6.64,6.47-12.4,4.99c-5.76-1.48-9.54-6.12-8.45-10.36
					c1.09-4.24,6.64-6.47,12.4-4.99S269.98,102.09,268.89,106.32z"/>
				<path class="st3" d="M260.53,111.4l-3.84,4.17c-0.5,0.54-0.74,1.27-0.65,2l2.64,22.83c0.07,0.64-0.1,1.28-0.49,1.8l-8.26,10.81
					c-0.37,0.48-1.12,0.35-1.3-0.23l-4.5-14.16c-0.17-0.54-0.15-1.11,0.05-1.64l7.91-20.73c0.17-0.45,0.21-0.95,0.11-1.42l-1.16-5.5
					L260.53,111.4z"/>
				<path class="st3" d="M260.01,112.76c-1.22,0-2.49-0.16-3.77-0.49c-2.99-0.77-5.59-2.36-7.32-4.48c-1.8-2.21-2.46-4.73-1.85-7.09
					c1.23-4.76,7.33-7.32,13.62-5.7c6.28,1.62,10.39,6.81,9.16,11.57v0C268.88,110.37,264.81,112.76,260.01,112.76z M256.87,96.5
					c-3.88,0-7.12,1.8-7.86,4.7c-0.45,1.73,0.07,3.63,1.46,5.33c1.46,1.79,3.69,3.15,6.27,3.81c5.21,1.34,10.23-0.57,11.19-4.27
					c0.95-3.7-2.52-7.8-7.73-9.14C259.07,96.64,257.94,96.5,256.87,96.5z"/>
				<path class="st129" d="M253.81,94.44c0,0,0.18,0.84-0.18,7.45c-0.11,2.08,7.17,4.02,9.05,2.14c1.88-1.88,1.13-3.84,1.58-10.91
					C264.71,86.04,253.81,94.44,253.81,94.44z"/>
				<path class="st130" d="M264.26,93.12c0,0-1.79,6.56-10.63,9.08l0.13-5.96L264.26,93.12z"/>
				<circle class="st129" cx="254.3" cy="80.47" r="16.06"/>
				<path class="st130" d="M257.99,81.06c0,0-8.84,3.79-14.97,3.83c-6.12,0.04-4.77-5.09-4.77-5.09l18.18-2.63L257.99,81.06z"/>
				<path class="st2" d="M241.2,82.06c0,0,7.7-3.27,14.46-1.91c1.59,0.32,3.06,1.17,4.08,2.43c0.33,0.41,0.76,0.79,1.24,0.89
					c1.2,0.27,3.16-4.7,5.49-4.81c2.33-0.11,3.88,1.54,1.97,4.59c-1.91,3.06-1.26,6.48-0.39,6.97s11.76-7.1,3.54-23.39
					c-8.22-16.29-30.67-7.06-33.92-3.76c0,0-3.42,2.98-6.21,0.33C231.47,63.4,228.35,86.77,241.2,82.06z"/>
				<path class="st129" d="M270.92,149.42v12.22c0,1.4-0.59,2.74-1.62,3.68l-25.11,22.89l2.85,4.36l34.59-22.68
					c1.55-1.12,2.55-2.85,2.75-4.75l2.37-22.68L270.92,149.42z"/>
				<path class="st128" d="M280.86,110.26c0,0,7.62,11.45,10.45,41.6c0,0-13.01,4.21-20.39,1.82S280.86,110.26,280.86,110.26z"/>
				<path class="st127" d="M269.53,124.75c0,0-2.98,15.96-3.15,23.46c-0.05,2.06,1.21,3.92,3.15,4.62l0,0V124.75z"/>
			</g>
			<g>
				<path class="st1" d="M263.02,204.1l-5.55-0.73l-35.82-20.68c-1.15-0.66-3.15-0.58-4.48,0.19l-25.38,14.65l-3.36-0.44v3.34l0,0
					c-0.02,0.44,0.23,0.86,0.77,1.18l40.59,23.44c1.15,0.66,3.15,0.58,4.48-0.19l27.64-15.95c0.75-0.43,1.12-0.99,1.1-1.51l0,0
					V204.1z"/>
				<path class="st0" d="M236.1,191.03l-2.54-1.47h-27.98l-13.79,7.96l-3.36-0.44v3.34l0,0c-0.02,0.44,0.23,0.86,0.77,1.18
					l40.59,23.44c0.61,0.35,1.45,0.49,2.31,0.43L236.1,191.03z"/>
				<path class="st1" d="M189.92,197.27l-1.49-0.2v3.34l0,0c-0.02,0.44,0.23,0.86,0.77,1.18l0.72,0.41V197.27z"/>
				<path class="st1" d="M230.21,225.22c1.09,0.41,2.64,0.32,3.81-0.24v-5.68h-3.81V225.22z"/>
				<path class="st3" d="M229.8,221.69l-40.59-23.44c-1.15-0.66-1-1.82,0.32-2.59l27.64-15.95c1.33-0.77,3.33-0.85,4.48-0.19
					l40.59,23.44c1.15,0.66,1,1.82-0.32,2.59l-27.64,15.95C232.95,222.27,230.95,222.35,229.8,221.69z"/>
				<path class="st2" d="M229.11,218.14l-33.75-19.49c-0.95-0.55-0.84-1.51,0.27-2.15l14.81-8.33c1.1-0.64,2.77-0.71,3.73-0.15
					l33.75,19.49c0.95,0.55,0.84,1.51-0.27,2.15l-14.81,8.33C231.74,218.62,230.07,218.69,229.11,218.14z"/>
			</g>
			<path class="st129" d="M218.74,178.94l-0.42,2.8c-0.36,2.39-0.3,4.82,0.18,7.18l0.5,2.47c0.28,1.39,1.38,2.47,2.78,2.73l0,0
				c1.09,0.2,2.12-0.57,2.25-1.67l0.67-5.99c0,0,1.53,2.01,2.27,2.01c0.74,0-0.83-6-2.5-9.39
				C222.8,175.69,218.74,178.94,218.74,178.94z"/>
			<path class="st129" d="M232.5,134.43l-4.36,8.62c-1.03,2.04-1.64,4.26-1.78,6.54l-1.89,29.49l-5.73-0.14l-2.6-33.11
				c-0.08-1.02-0.03-2.05,0.15-3.06l2.97-16.79L232.5,134.43z"/>
			<g>
				<path class="st4" d="M228.43,223.94l-3.4-4.44l-35.79-20.72c-1.15-0.66-2.08-2.44-2.07-3.98l0.03-29.3l-2.06-2.69l1.93-1.12l0,0
					c0.37-0.24,0.86-0.23,1.4,0.08l40.56,23.49c1.15,0.66,2.08,2.44,2.07,3.98l-0.03,31.91c0,0.86-0.3,1.46-0.76,1.7l0,0
					L228.43,223.94z"/>
				<path class="st0" d="M203.67,207.14l-2.54-1.47l-13.96-24.25l0.01-15.92l-2.06-2.69l1.93-1.12l0,0c0.37-0.24,0.86-0.23,1.4,0.08
					l40.56,23.49c0.61,0.35,1.15,1.01,1.53,1.79L203.67,207.14z"/>
				<path class="st1" d="M186.04,164l-0.91-1.19l1.93-1.12l0,0c0.37-0.24,0.86-0.23,1.4,0.08l0.71,0.41L186.04,164z"/>
				<path class="st131" d="M229.4,185.52c0.9,0.74,1.6,2.13,1.69,3.42l-3.96,2.29l-1.9-3.3L229.4,185.52z"/>
				<path class="st1" d="M227.1,186.38l-40.56-23.49c-1.15-0.66-2.08,0.04-2.08,1.57l-0.03,31.91c0,1.53,0.93,3.31,2.07,3.98
					l40.56,23.49c1.15,0.66,2.08-0.04,2.08-1.57l0.03-31.91C229.17,188.82,228.25,187.04,227.1,186.38z"/>
			</g>
			<path class="st129" d="M247.04,192.57l-0.65,1.35c-0.75,1.55-1.93,2.85-3.39,3.76l-4.03,2.48c-1.25,0.77-2.84,0.84-4.11,0.1
				c-0.05-0.03-0.09-0.05-0.14-0.08c-1.28-0.8-1.4-2.64-0.34-3.72l4.21-4.33c0,0-2.37,1.81-3.03,1.08
				c-0.49-0.53,2.29-3.15,4.43-3.23c2.13-0.09,4.2-1.76,4.2-1.76L247.04,192.57z"/>
			<path class="st128" d="M236.37,94.92c0,0-15.44,16.79-21.66,32.2c0,0,5.28,9.51,18.2,13.24
				C245.82,144.1,236.37,94.92,236.37,94.92z"/>
			<path class="st127" d="M230,139.37l2.5-24.17l-5.9,22.64C227.65,138.39,228.79,138.9,230,139.37z"/>
			<path class="st3" d="M247.93,91.53l-4.15-1.14c0,0,1.98,3.11,4.87,3.91c2.89,0.79,3.34-1.65,3.34-1.65L247.93,91.53z"/>
		</g>
		<circle class="st3" cx="267.77" cy="84.89" r="2.31"/>
	</g>
	<path class="st4" d="M391.66,265.58l-6.73,3.89c-0.89,0.52-1.62-0.03-1.62-1.22l0,0c0-1.19,0.73-2.58,1.62-3.09l6.73-3.89
		c0.89-0.52,1.62,0.03,1.62,1.22v0C393.28,263.68,392.56,265.06,391.66,265.58z"/>
	<g>
		<g>
			<path class="st127" d="M363.23,151.43l-51.51-29.74c-1.02-0.59-1.94-0.61-2.66-0.21c0,0,0-0.03,0-0.03l-5,2.89
				c0,0,2.21,0.81,3.51,1.28v37.51c0,3.05,1.86,6.6,4.14,7.92l49.24,28.43v4.4l5.05-2.91l-0.03-0.01c0.85-0.52,1.4-1.66,1.4-3.3
				v-38.3C367.37,156.3,365.52,152.75,363.23,151.43z"/>
			<path class="st128" d="M358.14,203.72l-51.51-29.74c-2.29-1.32-4.14-4.87-4.14-7.92v-38.3c0-3.05,1.86-4.45,4.14-3.13
				l51.51,29.74c2.29,1.32,4.14,4.87,4.14,7.92v38.3C362.28,203.64,360.43,205.04,358.14,203.72z"/>
			<path class="st3" d="M359.4,153.78l-51.51-29.74c-1.25-0.73-2.36-0.61-3.12,0.13c0.56-0.06,1.19,0.07,1.86,0.46l51.51,29.74
				c2.29,1.32,4.14,4.87,4.14,7.92v38.3c0,1.38-0.39,2.4-1.02,3c1.35-0.13,2.28-1.44,2.28-3.59v-38.3
				C363.54,158.64,361.69,155.1,359.4,153.78z"/>
		</g>
		<g>
			<path class="st3" d="M323.95,160.78c0,2.22-1.56,3.11-3.48,2.01c-1.92-1.11-3.48-3.8-3.48-6.02c0-2.22,1.56-3.11,3.48-2.01
				C322.39,155.87,323.95,158.56,323.95,160.78z"/>
			<path class="st3" d="M334.48,166.86c0,2.22-1.56,3.11-3.48,2.01c-1.92-1.11-3.48-3.8-3.48-6.02s1.56-3.11,3.48-2.01
				C332.92,161.95,334.48,164.64,334.48,166.86z"/>
			<ellipse transform="matrix(0.866 -0.5 0.5 0.866 -39.7087 193.6768)" class="st3" cx="341.53" cy="170.93" rx="2.84" ry="4.92"/>
		</g>
	</g>
	<g class="st132">
		<g>
			<path class="st127" d="M363.23,213.79l-51.51-29.74c-1.02-0.59-1.94-0.61-2.66-0.21c0,0,0-0.03,0-0.03l-5,2.89
				c0,0,2.21,0.81,3.51,1.28v37.51c0,3.05,1.86,6.6,4.14,7.92l49.24,28.43v4.4l5.05-2.91l-0.03-0.01c0.85-0.52,1.4-1.66,1.4-3.3
				v-38.3C367.37,218.65,365.52,215.11,363.23,213.79z"/>
			<path class="st128" d="M358.14,266.07l-51.51-29.74c-2.29-1.32-4.14-4.87-4.14-7.92v-38.3c0-3.05,1.86-4.45,4.14-3.13
				l51.51,29.74c2.29,1.32,4.14,4.87,4.14,7.92v38.3C362.28,265.99,360.43,267.4,358.14,266.07z"/>
			<path class="st3" d="M359.4,216.13l-51.51-29.74c-1.25-0.73-2.36-0.61-3.12,0.13c0.56-0.06,1.19,0.07,1.86,0.46l51.51,29.74
				c2.29,1.32,4.14,4.87,4.14,7.92v38.3c0,1.38-0.39,2.4-1.02,3c1.35-0.13,2.28-1.44,2.28-3.59v-38.3
				C363.54,221,361.69,217.45,359.4,216.13z"/>
		</g>
		<g>
			<path class="st3" d="M323.95,223.13c0,2.22-1.56,3.11-3.48,2.01c-1.92-1.11-3.48-3.8-3.48-6.02c0-2.22,1.56-3.11,3.48-2.01
				C322.39,218.22,323.95,220.92,323.95,223.13z"/>
			<path class="st3" d="M334.48,229.21c0,2.22-1.56,3.11-3.48,2.01c-1.92-1.11-3.48-3.8-3.48-6.02c0-2.22,1.56-3.11,3.48-2.01
				C332.92,224.3,334.48,227,334.48,229.21z"/>
			<path class="st3" d="M345.01,235.29c0,2.22-1.56,3.11-3.48,2.01c-1.92-1.11-3.48-3.8-3.48-6.02s1.56-3.11,3.48-2.01
				C343.45,230.38,345.01,233.08,345.01,235.29z"/>
		</g>
	</g>
	<g>
		<polygon class="st2" points="297.08,244.8 362.21,207.2 358.05,204.8 292.93,242.4 		"/>
		<polygon class="st2" points="342.4,233.84 375.37,214.8 371.21,212.4 338.24,231.44 		"/>
		<polygon class="st128" points="326.39,243.08 337.09,236.91 332.93,234.51 322.24,240.68 		"/>
		<polygon class="st3" points="310.25,252.4 320.94,246.23 316.78,243.83 306.09,250 		"/>
		<polygon class="st3" points="342.03,226.45 368.79,211 364.63,208.6 337.87,224.05 		"/>
		<polygon class="st2" points="309.36,245.32 336.12,229.86 331.96,227.46 305.2,242.92 		"/>
		<g>
			<path class="st128" d="M329.17,212.29c1.34,0.77,3.51,0.77,4.85,0c1.34-0.77,1.34-2.03,0-2.8c-1.34-0.77-3.51-0.77-4.85,0
				C327.83,210.26,327.83,211.51,329.17,212.29z"/>
			<path class="st3" d="M321.93,216.47c1.34,0.77,3.51,0.77,4.85,0c1.34-0.77,1.34-2.03,0-2.8c-1.34-0.77-3.51-0.77-4.85,0
				C320.59,214.44,320.59,215.7,321.93,216.47z"/>
			<path class="st2" d="M314.68,220.65c1.34,0.77,3.51,0.77,4.85,0c1.34-0.77,1.34-2.03,0-2.8c-1.34-0.77-3.51-0.77-4.85,0
				C313.34,218.63,313.34,219.88,314.68,220.65z"/>
			<path class="st128" d="M307.43,224.84c1.34,0.77,3.51,0.77,4.85,0c1.34-0.77,1.34-2.03,0-2.8c-1.34-0.77-3.51-0.77-4.85,0
				C306.09,222.81,306.09,224.06,307.43,224.84z"/>
			<path class="st3" d="M300.19,229.02c1.34,0.77,3.51,0.77,4.85,0c1.34-0.77,1.34-2.03,0-2.8c-1.34-0.77-3.51-0.77-4.85,0
				C298.85,226.99,298.85,228.25,300.19,229.02z"/>
		</g>
	</g>
	<g>
		<polygon class="st128" points="165.09,155.79 176.06,149.45 171.8,146.99 160.83,153.32 		"/>
		<polygon class="st3" points="149.83,164.6 160.79,158.27 156.53,155.81 145.56,162.14 		"/>
		<polygon class="st3" points="167.54,162.17 182.81,153.35 178.55,150.89 163.28,159.7 		"/>
		<polygon class="st2" points="156.57,168.5 163.27,164.63 159.01,162.17 152.31,166.04 		"/>
	</g>
	<g>
		<g>
			<ellipse class="st133" cx="282.88" cy="336.93" rx="27.8" ry="16.05"/>
			<path class="st128" d="M315.42,319.53v-9.14h-1.72c-1.55-2.67-4.13-5.18-7.81-7.3c-12.71-7.34-33.31-7.34-46.02,0
				c-3.68,2.12-6.26,4.63-7.81,7.3h-1.72v9.09h0c-0.02,4.82,3.15,9.65,9.53,13.33c12.71,7.34,33.31,7.34,46.02,0
				C312.24,329.14,315.42,324.33,315.42,319.53z"/>
			<ellipse class="st128" cx="282.88" cy="310.39" rx="32.54" ry="18.79"/>
			<path class="st3" d="M305.89,323.67c-12.71,7.34-33.31,7.34-46.02,0c-6.09-3.52-9.23-8.08-9.48-12.69
				c-0.27,5.01,2.86,10.06,9.48,13.88c12.71,7.34,33.31,7.34,46.02,0c6.62-3.82,9.76-8.88,9.48-13.88
				C315.11,315.59,311.98,320.16,305.89,323.67z"/>
		</g>
		<g>
			<path class="st3" d="M267.19,316.61c-0.55-0.32-0.86-0.75-0.86-1.2l0.03-12.24c0-0.93,1.32-1.69,2.93-1.69
				c1.62,0,2.92,0.76,2.92,1.69l-0.03,10.15l29.46-3.61c1.58-0.19,3.14,0.39,3.47,1.3c0.34,0.91-0.68,1.81-2.26,2.01l-33,4.04
				c-0.87,0.11-1.77-0.02-2.45-0.34C267.34,316.69,267.26,316.65,267.19,316.61z"/>
		</g>
	</g>
	<path class="st133" d="M120.7,283.76l29.92-17.11c5.48-3.13,4.79-8.6-1.53-12.22h0c-6.32-3.62-15.89-4.01-21.36-0.88L97.8,270.66
		c-5.48,3.13-4.79,8.6,1.53,12.22l0,0C105.66,286.49,115.23,286.89,120.7,283.76z"/>
	<g>
		<g>
			<path class="st4" d="M131,238.78l0.01-5.74l6.85-34.19l-6.77-4.14l-13.56,7.41l-0.1,44.07c-0.01,2.97,1.12,4.97,2.84,5.62l0,0
				l6.03,3.75l0.76-2.84l1.04-5.17C129.85,245.01,131,241.76,131,238.78z"/>
			<path class="st1" d="M130.97,255.44L130.97,255.44c-3.74,2.05-6.77-0.24-6.76-5.11l0.1-44.07l13.56-7.41l-0.1,44.07
				C137.76,247.78,134.72,253.39,130.97,255.44z"/>
		</g>
		<g>
			
				<ellipse transform="matrix(0.8618 -0.5072 0.5072 0.8618 -62.978 98.8175)" class="st128" cx="149.86" cy="164.99" rx="14.42" ry="24.87"/>
			<polygon class="st128" points="162.56,186.37 111.02,215.64 83.32,174.42 137.01,143.7 			"/>
		</g>
		<path class="st2" d="M142.29,190.05c0-11.5-8.15-25.49-18.21-31.25c-4.57-2.61-8.75-3.07-11.94-1.72l0-0.01l-0.07,0.03
			c-0.03,0.01-0.05,0.03-0.08,0.04c-0.14,0.06-0.28,0.13-0.42,0.2c-19.02,9.26-40.07,13.68-61.25,12.87l-6-0.23l48.86,82.93
			l2.65-5.07c9.65-18.47,23.76-34.29,41.05-46.07C140.21,199.91,142.29,195.85,142.29,190.05z"/>
		<path class="st2" d="M98.86,234.17c0-22.07-15.64-48.91-34.94-59.94c-9.62-5.5-18.34-6.04-24.66-2.45l0,0l-0.03,0.02
			c-0.02,0.01-0.03,0.02-0.05,0.03l-5.73,3.33l2-0.41c-4.08,4.21-6.47,10.83-6.47,19.47c0,22.07,15.64,48.91,34.94,59.94
			c7.57,4.33,14.58,5.58,20.31,4.17l-0.91,1.32l5.28-3.06c0.03-0.02,0.06-0.03,0.08-0.05l0.19-0.11l-0.01,0
			C95.05,252.76,98.86,245.07,98.86,234.17z"/>
		<path class="st3" d="M94.77,236.54c0-22.07-15.64-48.91-34.94-59.94c-9.49-5.43-18.1-6.02-24.4-2.59l-0.88,0.51
			c-0.3,0.19-0.59,0.39-0.88,0.59l1.78-0.37c-4.08,4.21-6.47,10.83-6.47,19.47c0,22.07,15.64,48.91,34.94,59.94
			c7.57,4.33,14.58,5.58,20.31,4.17l-0.83,1.21C90.39,256.22,94.77,248.22,94.77,236.54z"/>
		
			<ellipse transform="matrix(0.8618 -0.5072 0.5072 0.8618 -102.0803 59.7836)" class="st1" cx="58.67" cy="217.23" rx="28.46" ry="49.06"/>
		
			<ellipse transform="matrix(0.8618 -0.5072 0.5072 0.8618 -102.0804 59.7838)" class="st4" cx="58.67" cy="217.23" rx="24.97" ry="43.04"/>
		<path class="st3" d="M60.11,251.68c-16.93-9.68-30.66-33.23-30.66-52.59c0-10.17,3.79-17.16,9.83-20.1
			c-6.87,2.5-11.26,9.76-11.26,20.71c0,19.36,13.73,42.91,30.66,52.59c8.04,4.6,15.36,5.24,20.82,2.58
			C74.21,256.78,67.46,255.89,60.11,251.68z"/>
		<g>
			<defs>
				
					<ellipse id="SVGID_3_" transform="matrix(0.8618 -0.5072 0.5072 0.8618 -102.0804 59.7838)" cx="58.67" cy="217.23" rx="24.97" ry="43.04"/>
			</defs>
			<clipPath id="SVGID_4_">
				<use xlink:href="#SVGID_3_"  style="overflow:visible;"/>
			</clipPath>
			<g class="st134">
				<polygon class="st2" points="54.09,209.97 98.57,175.91 114.72,203.66 62.51,224.88 				"/>
				<path class="st1" d="M64.8,220.73c0,3.87-2.74,5.43-6.12,3.5c-3.38-1.93-6.12-6.64-6.12-10.5c0-3.87,2.74-5.43,6.12-3.5
					C62.06,212.16,64.8,216.86,64.8,220.73z"/>
			</g>
		</g>
		<g>
			<path class="st128" d="M120.94,239.15l-0.24-0.14c-0.89-0.51-1.61-1.87-1.62-3.04l-0.02-8.5c0-1.17,0.72-1.71,1.6-1.21l0.24,0.14
				c0.89,0.51,1.61,1.87,1.62,3.04l0.02,8.5C122.55,239.12,121.83,239.66,120.94,239.15z"/>
		</g>
	</g>
	<g>
		<polygon class="st133" points="122.94,339.69 104.19,328.87 122.94,318.04 141.68,328.87 		"/>
		<polygon class="st4" points="141.68,316.59 122.94,327.41 122.94,305.77 141.68,294.94 		"/>
		<polygon class="st2" points="122.94,305.77 104.19,294.94 122.94,284.12 141.68,294.94 		"/>
		<polygon class="st1" points="122.94,327.41 104.19,316.59 104.19,294.94 122.94,305.77 		"/>
	</g>
	<g>
		<polygon class="st133" points="405.14,333.69 388.68,324.19 405.14,314.68 421.6,324.19 		"/>
		<polygon class="st127" points="421.61,313.41 405.14,322.91 405.14,303.9 421.61,294.4 		"/>
		<polygon class="st128" points="405.14,303.9 388.68,294.4 405.14,284.9 421.6,294.4 		"/>
		<polygon class="st128" points="405.14,322.91 388.68,313.41 388.68,294.4 405.14,303.9 		"/>
	</g>
	<g>
		<ellipse class="st133" cx="13.87" cy="308.05" rx="12.65" ry="7.3"/>
		
			<ellipse transform="matrix(0.7071 -0.7071 0.7071 0.7071 -199.8654 94.2769)" class="st2" cx="13.87" cy="288.4" rx="13.87" ry="13.87"/>
		<path class="st1" d="M21.22,276.65c1.81,2.34,2.9,5.27,2.9,8.46c0,7.66-6.21,13.87-13.87,13.87c-2.71,0-5.22-0.79-7.35-2.13
			c2.54,3.28,6.5,5.41,10.97,5.41c7.66,0,13.87-6.21,13.87-13.87C27.74,283.44,25.13,279.11,21.22,276.65z"/>
	</g>
</g>
</svg>
